<?xml version="1.0" standalone="no"?><!DOCTYPE svg PUBLIC "-//W3C//DTD SVG 1.1//EN" "http://www.w3.org/Graphics/SVG/1.1/DTD/svg11.dtd"><svg class="icon" width="200px" height="200.00px" viewBox="0 0 1024 1024" version="1.1" xmlns="http://www.w3.org/2000/svg"><path d="M1014.79936 414.8992a46.08 46.08 0 0 0-34.49856-36.1984c-44.99968-10.50112-82.49856-38.5024-105.40032-78.69952-22.99904-40.29952-28.09856-87.19872-14.60224-132.1984 5.20192-17.30048-0.19968-36.10112-13.70112-47.8976a509.45536 509.45536 0 0 0-166.4-97.39776c-17.1008-6.09792-36.10112-1.30048-48.50176 12.09856-31.40096 34.2016-73.99936 53.09952-119.70048 53.09952S423.79776 68.89984 392.29952 34.69824a45.47072 45.47072 0 0 0-48.50176-12.09856 505.71776 505.71776 0 0 0-166.4 97.39776c-13.50144 11.8016-18.89792 30.60224-13.70112 47.8976 13.50144 44.9024 8.29952 91.8016-14.60224 132.10112S88.80128 368.30208 43.8016 378.7008a45.5168 45.5168 0 0 0-34.60096 36.1984C3.0976 447.49824 0 480.19968 0 512s3.0976 64.50176 9.29792 97.19808a45.696 45.696 0 0 0 34.49856 36.10112c44.99968 10.50112 82.49856 38.5024 105.40032 78.69952 22.90176 40.40192 28.09856 87.30112 14.60224 132.1984-5.20192 17.30048 0.19968 36.10112 13.70112 47.8976a509.45536 509.45536 0 0 0 166.4 97.39776 46.1056 46.1056 0 0 0 15.09888 2.60096 45.41952 45.41952 0 0 0 33.39776-14.69952c31.49824-34.2016 74.10176-53.00224 119.70048-53.00224 45.7984 0 88.29952 18.80064 119.70048 53.00224a45.78816 45.78816 0 0 0 48.50176 12.20096c61.19936-21.60128 117.20192-54.4 166.4-97.39776 13.50144-11.8016 18.89792-30.69952 13.70112-47.8976-13.50144-44.9024-8.29952-91.8016 14.69952-132.1984 22.90176-40.29952 60.40064-68.1984 105.29792-78.69952 17.60256-4.10112 31.09888-18.2016 34.49856-36.1984 6.09792-32.70144 9.20064-65.39776 9.20064-97.1008-0.09728-31.90272-3.19488-64.60416-9.29792-97.2032z m-43.8016 186.10176c-0.1024 0.59904-0.50176 0.9984-0.79872 0.9984-57.20064 13.39904-104.80128 48.90112-133.89824 100.10112-29.10208 51.0976-35.70176 110.40256-18.60096 166.99904a1.56672 1.56672 0 0 1-0.39936 1.60256c-44.9024 39.30112-96 69.20192-151.79776 88.89856-0.39936 0.1024-0.70144 0-0.9984-0.30208-39.90016-43.49952-94.10048-67.39968-152.40192-67.39968s-112.39936 23.90016-152.4992 67.39968c-0.19968 0.19968-0.39936 0.30208-0.90112 0.19968a465.13152 465.13152 0 0 1-151.90016-88.89856c-0.39936-0.39936-0.59904-0.9984-0.39936-1.60256 17.1008-56.69888 10.50112-115.99872-18.49856-166.99904-29.10208-51.2-76.6976-86.70208-134.00064-100.10112a1.40288 1.40288 0 0 1-0.79872-0.9984c-5.60128-29.9008-8.4992-59.8016-8.4992-88.89856s2.89792-58.99776 8.4992-89.09824c0.1024-0.50176 0.50176-0.90112 0.79872-0.90112 57.29792-13.30176 104.80128-48.79872 134.00064-100.10112 28.99968-51.00032 35.59936-110.30016 18.49856-166.90176-0.19968-0.59904 0-1.30048 0.39936-1.60256 44.8-39.19872 95.80032-69.20192 151.90016-88.89856 0.30208-0.1024 0.70144 0 0.9984 0.30208 40.00256 43.49952 94.10048 67.39968 152.40192 67.39968 58.39872 0 112.50176-24.00256 152.4992-67.39968 0.30208-0.30208 0.59904-0.39936 0.90112-0.30208a465.13152 465.13152 0 0 1 151.90016 88.89856c0.39936 0.39936 0.59904 0.9984 0.39936 1.60256-17.1008 56.69888-10.50112 116.10112 18.49856 166.99904 29.10208 51.2 76.6976 86.70208 133.80096 99.99872 0.39936 0.1024 0.79872 0.59904 0.90112 1.1008 5.60128 29.9008 8.4992 59.89888 8.4992 89.00096 0 29.0048-2.90304 58.90048-8.50432 88.90368z" fill="#5D5D5D" /><path d="M512 311.70048c-110.49984 0-200.29952 89.90208-200.29952 200.29952S401.50016 712.40192 512 712.40192c12.29824 0 22.2976-9.99936 22.2976-22.2976s-9.99936-22.2976-22.2976-22.2976c-85.89824 0-155.8016-69.89824-155.8016-155.8016S426.10176 356.1984 512 356.1984s155.8016 69.89824 155.8016 155.8016c0 12.29824 9.99936 22.2976 22.2976 22.2976s22.2976-9.99936 22.2976-22.2976c-0.09728-110.49984-89.89696-200.29952-200.3968-200.29952z" fill="#5D5D5D" /></svg>