<?xml version="1.0" standalone="no"?><!DOCTYPE svg PUBLIC "-//W3C//DTD SVG 1.1//EN" "http://www.w3.org/Graphics/SVG/1.1/DTD/svg11.dtd"><svg t="1620742044619" class="icon" viewBox="0 0 1024 1024" version="1.1" xmlns="http://www.w3.org/2000/svg" p-id="3621" xmlns:xlink="http://www.w3.org/1999/xlink" width="200" height="200"><defs><style type="text/css"></style></defs><path d="M534.5 462.4c-143.1 0-260.3 117.1-260.3 260.3 0 20.9 2.8 41.2 7.5 60.8 19.5 4.7 39.8 7.5 60.8 7.5h332.8c143.1 0 260.3-117.1 260.3-260.3 0-20.9-2.8-41.2-7.5-60.8-19.5-4.7-39.8-7.5-60.8-7.5H534.5z" fill="#99d0ee" p-id="3622" data-spm-anchor-id="a313x.7781069.0.i1" class="selected"></path><path d="M470.7 904.9c-4.5 0-8.9-1.4-12.8-4.3-9.4-7.1-11.3-20.4-4.3-29.9l49.6-66.1c1.9-2.5 1.4-4.9 0.6-6.5-0.8-1.6-2.4-3.4-5.5-3.4H346.9C190.9 794.8 64 668 64 512s126.9-282.8 282.9-282.8h41.3c11.8 0 21.3 9.5 21.3 21.3s-9.5 21.3-21.3 21.3h-41.3c-132.4 0-240.2 107.7-240.2 240.2s107.8 240.2 240.2 240.2h151.4c18.6 0 35.4 10.4 43.7 27 8.3 16.7 6.6 36.3-4.6 51.2l-49.6 66.1c-4.2 5.5-10.6 8.4-17.1 8.4zM677.2 794.8h-41.3c-11.8 0-21.3-9.5-21.3-21.3s9.5-21.3 21.3-21.3h41.3c132.4 0 240.2-107.7 240.2-240.2S809.6 271.8 677.2 271.8H525.8c-18.6 0-35.4-10.4-43.7-27-8.3-16.7-6.6-36.3 4.6-51.2l49.5-66.1c7.1-9.4 20.5-11.3 29.9-4.3 9.4 7.1 11.4 20.4 4.3 29.9l-49.5 66.1c-1.9 2.5-1.4 4.9-0.6 6.5 0.8 1.6 2.4 3.4 5.5 3.4h151.4c156 0 282.8 126.9 282.8 282.8S833.1 794.8 677.2 794.8z" fill="#ffffff" p-id="3623" data-spm-anchor-id="a313x.7781069.0.i2" class="selected"></path></svg>