<?xml version="1.0" standalone="no"?><!DOCTYPE svg PUBLIC "-//W3C//DTD SVG 1.1//EN" "http://www.w3.org/Graphics/SVG/1.1/DTD/svg11.dtd"><svg class="icon" width="200px" height="200.00px" viewBox="0 0 1024 1024" version="1.1" xmlns="http://www.w3.org/2000/svg"><path d="M998.956522 530.476522H644.563478a22.26087 22.26087 0 0 1 0-44.521739h354.393044a22.26087 22.26087 0 1 1 0 44.521739zM509.217391 530.476522H25.043478a22.26087 22.26087 0 0 1 0-44.521739h484.173913a22.26087 22.26087 0 1 1 0 44.521739z" fill="#666666" /><path d="M509.217391 1024a22.26087 22.26087 0 0 1-22.260869-22.26087V22.26087a22.26087 22.26087 0 0 1 44.521739 0v979.47826a22.26087 22.26087 0 0 1-22.26087 22.26087z" fill="#666666" /></svg>