<?xml version="1.0" standalone="no"?><!DOCTYPE svg PUBLIC "-//W3C//DTD SVG 1.1//EN" "http://www.w3.org/Graphics/SVG/1.1/DTD/svg11.dtd"><svg class="icon" width="200px" height="198.64px" viewBox="0 0 1031 1024" version="1.1" xmlns="http://www.w3.org/2000/svg"><path d="M616.373111 668.839939a22.421721 22.421721 0 0 1-17.040508-7.623385 22.421721 22.421721 0 0 1 2.242173-31.614627l264.800525-232.064813a22.421721 22.421721 0 0 1 29.596672 33.632582L631.171447 663.234508a22.421721 22.421721 0 0 1-14.798336 5.605431zM492.380994 777.361069a22.421721 22.421721 0 0 1-17.264725-8.296037L145.741187 368.388877a22.421721 22.421721 0 1 1 34.52945-28.475586l289.688636 352.245238V22.421721a22.421721 22.421721 0 1 1 44.843442 0v732.517626a22.421721 22.421721 0 0 1-14.798336 21.076418 22.421721 22.421721 0 0 1-7.623385 1.345304zM919.290563 1024H112.108605a112.108605 112.108605 0 0 1-112.108605-112.108605v-108.52113a22.421721 22.421721 0 0 1 44.843442 0v108.52113a67.265163 67.265163 0 0 0 67.265163 67.265163h807.181958a67.265163 67.265163 0 0 0 67.265163-67.265163v-108.52113a22.421721 22.421721 0 0 1 44.843442 0v108.52113a112.108605 112.108605 0 0 1-112.108605 112.108605z" fill="#666666" /></svg>